<svg xmlns="http://www.w3.org/2000/svg" viewBox="0 0 32 32" width="32" height="32">
  <!-- Background: white/light strip on left -->
  <rect width="32" height="32" rx="6" fill="#7c1c2e"/>
  <!-- White serrated band on left (Qatar flag style) -->
  <path d="M0 0 L8 0 L11 3.2 L8 6.4 L11 9.6 L8 12.8 L11 16 L8 19.2 L11 22.4 L8 25.6 L11 28.8 L8 32 L0 32 Z" fill="#f0f0f0" rx="6"/>
  <!-- Round left corners of white band to match rect rx -->
  <path d="M0 6 Q0 0 6 0 L8 0 L11 3.2 L8 6.4 L11 9.6 L8 12.8 L11 16 L8 19.2 L11 22.4 L8 25.6 L11 28.8 L8 32 L6 32 Q0 32 0 26 Z" fill="#f0f0f0"/>
</svg>
